fd_8_states
version=1
nRows=27
nColumns=17
inDegrees=yes

# SIMM Motion File Header:
name fd_8_states
datacolumns 17
datarows 27
otherdata 1
range 0.727058 0.766010
endheader
time	/jointset/r_shoulder/r_shoulder_elev/value	/jointset/r_shoulder/r_shoulder_elev/speed	/jointset/r_elbow/r_elbow_flex/value	/jointset/r_elbow/r_elbow_flex/speed	/forceset/TRIlong/activation	/forceset/TRIlong/fiber_length	/forceset/TRIlat/activation	/forceset/TRIlat/fiber_length	/forceset/TRImed/activation	/forceset/TRImed/fiber_length	/forceset/BIClong/activation	/forceset/BIClong/fiber_length	/forceset/BICshort/activation	/forceset/BICshort/fiber_length	/forceset/BRA/activation	/forceset/BRA/fiber_length
      0.727058	      0.002991	      0.119880	     46.211518	    117.597731	      0.020000	      0.154562	      0.125906	      0.087763	      0.121117	      0.082858	      0.491577	      0.128621	      0.075910	      0.129657	      0.020000	      0.082725
      0.729588	      0.003279	      0.105534	     46.510790	    118.989886	      0.020000	      0.154676	      0.126407	      0.087876	      0.121442	      0.082972	      0.495149	      0.128431	      0.074330	      0.129498	      0.020000	      0.082659
      0.730175	      0.003339	      0.099979	     46.580657	    119.321013	      0.020000	      0.154703	      0.126534	      0.087902	      0.121552	      0.082998	      0.495987	      0.128386	      0.073975	      0.129461	      0.020000	      0.082644
      0.730761	      0.003396	      0.093841	     46.650718	    119.654466	      0.020000	      0.154729	      0.126899	      0.087928	      0.122012	      0.083025	      0.497600	      0.128342	      0.073634	      0.129425	      0.020000	      0.082628
      0.731347	      0.003449	      0.087944	     46.720975	    119.987809	      0.020000	      0.154756	      0.127251	      0.087955	      0.122455	      0.083051	      0.499188	      0.128297	      0.073296	      0.129387	      0.020000	      0.082613
      0.733894	      0.003651	      0.074705	     47.028361	    121.406855	      0.020000	      0.154873	      0.128471	      0.088068	      0.123993	      0.083163	      0.505257	      0.128100	      0.071869	      0.129225	      0.020000	      0.082544
      0.736441	      0.003845	      0.079021	     47.339306	    122.789098	      0.020000	      0.154990	      0.129314	      0.088183	      0.125051	      0.083277	      0.510181	      0.127899	      0.070500	      0.129061	      0.020000	      0.082474
      0.738178	      0.003987	      0.084832	     47.553498	    123.733137	      0.020000	      0.155072	      0.129734	      0.088263	      0.125577	      0.083357	      0.513001	      0.127760	      0.069598	      0.128948	      0.020000	      0.082426
      0.739923	      0.004139	      0.088334	     47.770261	    124.695189	      0.020000	      0.155154	      0.130063	      0.088345	      0.125987	      0.083438	      0.515463	      0.127621	      0.068718	      0.128832	      0.020000	      0.082376
      0.740140	      0.004158	      0.088466	     47.797328	    124.816143	      0.020000	      0.155164	      0.130181	      0.088355	      0.126095	      0.083448	      0.515831	      0.127603	      0.068789	      0.128818	      0.020000	      0.082370
      0.740357	      0.004177	      0.088558	     47.824421	    124.937308	      0.020000	      0.155174	      0.130446	      0.088365	      0.126314	      0.083458	      0.516348	      0.127586	      0.069533	      0.128803	      0.020000	      0.082364
      0.741442	      0.004274	      0.090318	     47.960281	    125.540616	      0.020000	      0.155225	      0.131649	      0.088415	      0.127312	      0.083507	      0.518800	      0.127498	      0.072861	      0.128725	      0.020000	      0.082333
      0.744087	      0.004537	      0.113788	     48.294186	    126.965680	      0.020000	      0.155351	      0.133899	      0.088534	      0.129173	      0.083628	      0.523952	      0.127281	      0.078812	      0.128510	      0.020000	      0.082256
      0.746731	      0.004886	      0.149582	     48.631818	    128.374234	      0.020000	      0.155479	      0.135435	      0.088655	      0.130440	      0.083751	      0.528123	      0.127062	      0.082645	      0.128278	      0.020000	      0.082178
      0.748683	      0.005198	      0.167684	     48.883398	    129.452327	      0.020000	      0.155574	      0.136248	      0.088747	      0.131109	      0.083843	      0.530687	      0.126899	      0.084581	      0.128103	      0.020000	      0.082119
      0.749826	      0.005392	      0.171387	     49.031749	    130.109445	      0.020000	      0.155629	      0.136629	      0.088802	      0.131421	      0.083898	      0.532016	      0.126803	      0.085461	      0.128000	      0.020000	      0.082084
      0.750139	      0.005446	      0.171346	     49.072450	    130.292878	      0.020000	      0.155645	      0.136742	      0.088817	      0.131529	      0.083914	      0.532448	      0.126777	      0.085603	      0.127972	      0.020000	      0.082075
      0.750451	      0.005499	      0.170878	     49.113208	    130.477826	      0.020000	      0.155660	      0.136968	      0.088832	      0.131817	      0.083929	      0.533417	      0.126750	      0.085331	      0.127944	      0.020000	      0.082065
      0.750831	      0.005564	      0.169947	     49.162776	    130.703804	      0.020000	      0.155679	      0.137234	      0.088850	      0.132159	      0.083947	      0.534587	      0.126718	      0.084990	      0.127911	      0.020000	      0.082054
      0.752729	      0.005881	      0.164902	     49.411910	    131.840590	      0.020000	      0.155772	      0.138368	      0.088941	      0.133612	      0.084037	      0.539934	      0.126555	      0.083322	      0.127747	      0.020000	      0.081995
      0.755365	      0.006312	      0.162708	     49.761534	    133.423076	      0.020000	      0.155904	      0.139512	      0.089069	      0.135072	      0.084163	      0.546145	      0.126324	      0.081096	      0.127530	      0.020000	      0.081912
      0.758632	      0.006835	      0.155252	     50.200715	    135.429536	      0.020000	      0.156068	      0.140448	      0.089231	      0.136262	      0.084324	      0.552262	      0.126033	      0.078475	      0.127270	      0.020000	      0.081807
      0.759943	      0.007033	      0.146911	     50.378801	    136.259509	      0.020000	      0.156135	      0.140718	      0.089297	      0.136603	      0.084390	      0.554313	      0.125915	      0.077465	      0.127167	      0.020000	      0.081764
      0.760449	      0.007107	      0.142728	     50.447772	    136.583625	      0.020000	      0.156160	      0.141023	      0.089323	      0.136933	      0.084416	      0.555538	      0.125869	      0.077186	      0.127127	      0.020000	      0.081747
      0.760954	      0.007178	      0.138504	     50.516907	    136.908461	      0.020000	      0.156186	      0.141422	      0.089348	      0.137355	      0.084441	      0.556980	      0.125823	      0.076968	      0.127088	      0.020000	      0.081731
      0.763482	      0.007510	      0.128667	     50.865026	    138.508108	      0.020000	      0.156316	      0.143039	      0.089475	      0.139060	      0.084567	      0.563397	      0.125590	      0.075902	      0.126887	      0.020000	      0.081646
      0.766010	      0.007843	      0.136723	     51.217135	    140.071670	      0.020000	      0.156447	      0.144172	      0.089603	      0.140251	      0.084694	      0.568680	      0.125354	      0.074880	      0.126684	      0.020000	      0.081560
